<?xml version="1.0" standalone="no"?>
<!DOCTYPE svg PUBLIC "-//W3C//DTD SVG 20010904//EN"
 "http://www.w3.org/TR/2001/REC-SVG-20010904/DTD/svg10.dtd">
<svg version="1.0" xmlns="http://www.w3.org/2000/svg"
 width="20.000000pt" height="20.000000pt" viewBox="0 0 933.000000 905.000000"
 preserveAspectRatio="xMidYMid meet">

<g transform="translate(0.000000,905.000000) scale(0.100000,-0.100000)"
fill="#FF0000" stroke="none">
<path d="M3259 8970 c-72 -9 -114 -30 -122 -60 -3 -11 -18 -147 -33 -303 -15
-155 -28 -283 -29 -285 -1 -1 -51 -11 -112 -22 -371 -67 -615 -209 -778 -455
-60 -90 -95 -174 -128 -304 -30 -123 -30 -359 0 -482 47 -187 107 -299 229
-428 132 -140 340 -256 714 -396 113 -42 235 -90 272 -105 171 -73 302 -176
353 -277 28 -54 30 -65 30 -173 0 -98 -3 -122 -23 -164 -98 -213 -366 -310
-764 -278 -219 18 -400 74 -634 198 -71 37 -134 64 -152 64 -42 0 -78 -32 -90
-82 -33 -132 -22 -405 19 -478 52 -92 314 -203 601 -255 l96 -17 -4 -32 c-12
-88 -54 -517 -54 -557 0 -83 63 -109 262 -110 136 0 198 11 227 40 22 22 23
28 57 376 13 143 27 265 29 271 2 6 36 14 76 18 178 16 406 83 562 163 283
146 463 370 539 670 19 75 23 115 23 268 0 156 -3 191 -23 265 -96 356 -321
552 -872 760 -439 166 -518 204 -622 299 -31 28 -70 78 -89 113 -33 60 -34 67
-34 168 0 130 21 184 101 260 56 53 105 79 207 107 78 22 369 24 462 4 111
-24 279 -83 422 -147 77 -35 152 -64 166 -64 63 0 81 73 75 307 -5 189 -11
219 -56 266 -58 62 -258 141 -454 179 -89 18 -108 25 -108 39 0 10 11 123 25
251 14 128 25 252 25 274 0 57 -28 89 -87 102 -68 15 -227 21 -304 12z"/>
<path d="M5530 7379 c-250 -5 -434 -12 -447 -18 -13 -6 -23 -17 -23 -26 0 -8
-4 -23 -9 -33 -10 -16 -55 -156 -171 -522 -28 -91 -65 -203 -80 -250 -15 -47
-49 -152 -75 -235 -78 -249 -145 -462 -192 -610 -25 -77 -49 -153 -54 -170 -5
-16 -17 -57 -28 -90 -11 -33 -40 -127 -66 -210 -64 -208 -143 -459 -165 -525
-9 -30 -28 -89 -40 -130 -12 -41 -33 -106 -45 -145 -13 -38 -40 -124 -60 -190
-20 -66 -40 -131 -45 -145 -13 -37 -73 -227 -115 -365 -20 -66 -45 -145 -55
-175 -10 -30 -39 -122 -65 -205 -25 -82 -69 -222 -97 -310 -27 -88 -63 -200
-78 -250 -33 -104 -136 -429 -187 -590 -58 -184 -79 -239 -91 -243 -7 -2 -23
21 -38 55 -14 32 -34 76 -44 98 -78 175 -215 507 -545 1330 -265 660 -455
1123 -497 1210 -40 86 33 80 -983 83 -926 3 -1022 0 -1057 -36 -28 -28 -38
-163 -38 -514 0 -333 10 -470 36 -499 36 -40 108 -44 907 -53 191 -2 349 -5
351 -7 2 -2 221 -546 486 -1209 908 -2269 915 -2287 940 -2300 12 -6 224 -10
550 -10 l531 0 22 23 c22 22 82 195 242 702 36 116 70 221 75 235 5 14 36 113
70 220 34 107 70 220 80 250 10 30 46 143 80 250 34 107 65 206 70 220 5 14
25 79 45 145 20 66 45 145 55 175 10 30 35 109 55 175 21 66 46 145 55 175 10
30 42 129 70 220 28 91 60 190 70 220 10 30 35 109 55 175 61 199 86 276 115
365 16 47 45 139 65 205 20 66 40 131 45 145 8 24 53 168 155 495 25 83 50
161 55 175 5 14 25 79 45 145 20 66 52 167 70 225 18 58 54 173 80 255 25 83
50 161 55 175 5 14 25 78 44 143 51 169 134 439 161 522 7 22 18 64 26 93 7
30 21 57 29 62 9 5 732 10 1616 12 1421 3 1603 5 1639 19 71 28 70 22 70 489
0 456 -5 539 -35 558 -13 8 -122 15 -332 22 -363 11 -2732 11 -3358 -1z"/>
<path d="M7613 5700 c-649 -48 -1141 -376 -1418 -945 -78 -159 -146 -348 -190
-520 l-32 -130 -211 -5 c-240 -6 -238 -5 -269 -94 -14 -41 -18 -83 -18 -216 0
-182 11 -244 52 -282 23 -22 32 -23 203 -26 l178 -3 0 -260 -1 -259 -178 0
c-171 0 -179 -1 -202 -22 -37 -34 -48 -80 -54 -223 -8 -196 21 -335 76 -365
12 -6 98 -10 209 -10 l190 0 12 -72 c31 -183 120 -450 213 -634 151 -301 403
-549 697 -688 189 -89 367 -139 605 -171 146 -20 506 -23 650 -5 402 48 749
186 852 337 56 83 76 181 76 378 0 259 -25 357 -97 370 -46 9 -84 -5 -196 -72
-204 -121 -397 -203 -555 -234 -48 -10 -138 -14 -285 -13 -200 1 -222 3 -315
27 -271 73 -461 235 -560 479 -35 85 -70 205 -76 263 l-4 30 524 3 525 2 24
23 c36 33 51 80 63 186 18 174 -9 341 -63 386 l-30 25 -558 0 -559 0 -3 143
c-2 78 -2 195 0 260 l3 117 545 0 c621 0 601 -2 635 75 30 67 43 218 30 339
-13 116 -38 182 -76 196 -16 6 -223 10 -541 10 -483 0 -514 1 -514 18 0 30 47
195 80 277 88 223 220 375 405 465 137 67 230 85 445 84 139 0 206 -5 270 -18
175 -37 342 -108 570 -241 90 -53 115 -61 170 -56 76 7 103 99 102 346 -2 291
-31 403 -122 470 -139 102 -431 199 -722 240 -136 19 -403 26 -555 15z"/>
</g>
</svg>
